<svg width="18" height="18" viewBox="0 0 18 18" fill="none" xmlns="http://www.w3.org/2000/svg">
<path d="M9 0C4.0374 0 0 4.0374 0 9C0 13.9626 4.0374 18 9 18C13.9626 18 18 13.9626 18 9C18 4.0374 13.9626 0 9 0ZM13.6689 9.2478L7.0689 13.7478C7.0182 13.7823 6.9591 13.8 6.9 13.8C6.852 13.8 6.8037 13.7886 6.7599 13.7652C6.6615 13.7133 6.6 13.6113 6.6 13.5V4.5C6.6 4.3887 6.6615 4.2867 6.7599 4.2348C6.8583 4.1826 6.9771 4.1898 7.0692 4.2522L13.6692 8.7522C13.7508 8.808 13.8 8.9007 13.8 9C13.8 9.0993 13.7508 9.192 13.6689 9.2478Z" fill="#444444"/>
</svg>
