<svg width="8" height="8" viewBox="0 0 8 8" fill="none" xmlns="http://www.w3.org/2000/svg">
<path d="M6.74475 3.74896C6.74475 3.61952 6.6398 3.51459 6.51038 3.51459C6.38092 3.51459 6.276 3.61952 6.276 3.74896C6.276 5.00396 5.25497 6.02499 3.99997 6.02499C2.74497 6.02499 1.72394 5.00396 1.72394 3.74896C1.72394 3.61952 1.61898 3.51459 1.48956 3.51459C1.36011 3.51459 1.25519 3.61952 1.25519 3.74896C1.25519 5.18348 2.36142 6.36432 3.76559 6.48365V7.53124H3.24686C3.11741 7.53124 3.01248 7.63618 3.01248 7.76562C3.01248 7.89505 3.11741 7.99999 3.24686 7.99999H4.75311C4.88253 7.99999 4.98748 7.89505 4.98748 7.76562C4.98748 7.63618 4.88253 7.53124 4.75311 7.53124H4.23434V6.48363C5.63852 6.3643 6.74475 5.18346 6.74475 3.74896Z" fill="#F18080"/>
<path d="M4.00001 0C3.31708 0 2.76147 0.555609 2.76147 1.23853V3.74897C2.76147 4.43189 3.31708 4.98748 4.00001 4.98748C4.68296 4.98748 5.23857 4.43188 5.23857 3.74895V1.23853C5.23857 0.555609 4.68296 0 4.00001 0Z" fill="#F18080"/>
</svg>
