<svg width="7" height="7" viewBox="0 0 7 7" fill="none" xmlns="http://www.w3.org/2000/svg">
<path d="M0.0427251 6.54485L2.07617 4.5114C1.69049 4.03525 1.45833 3.42991 1.45833 2.77084C1.45833 1.24301 2.70134 0 4.22917 0C5.75701 0 7 1.24301 7 2.77084C7 4.29868 5.75699 5.54169 4.22916 5.54169C3.57009 5.54169 2.96475 5.30951 2.4886 4.92384L0.455152 6.95729C0.39818 7.01423 0.305868 7.01423 0.248897 6.95729L0.0427113 6.75109C-0.0142322 6.69413 -0.0142322 6.60179 0.0427251 6.54485ZM4.22916 4.95835C5.43541 4.95835 6.41666 3.9771 6.41666 2.77084C6.41666 1.56459 5.43541 0.583339 4.22916 0.583339C3.0229 0.583339 2.04165 1.56459 2.04165 2.77084C2.04165 3.9771 3.0229 4.95835 4.22916 4.95835Z" fill="#585858"/>
</svg>
