<svg (click)="exit()" viewBox="0 0 14 14" fill="none" xmlns="http://www.w3.org/2000/svg">
<g clip-path="url(#clip0)">
<path d="M13.9555 6.19372C13.9257 6.12255 13.8831 6.0578 13.8289 6.00355L12.0795 4.25412C11.8514 4.02662 11.4827 4.02662 11.2546 4.25412C11.0266 4.4822 11.0266 4.85145 11.2546 5.07895L12.0089 5.8332H8.75035C8.42778 5.8332 8.16703 6.09452 8.16703 6.41652C8.16703 6.73852 8.42778 6.99984 8.75035 6.99984H12.0089L11.2546 7.75409C11.0265 7.98217 11.0265 8.35142 11.2546 8.57892C11.3684 8.69324 11.5177 8.74984 11.667 8.74984C11.8164 8.74984 11.9657 8.69327 12.0795 8.57892L13.8289 6.82949C13.8831 6.77582 13.9257 6.71107 13.9555 6.63932C14.0144 6.49705 14.0144 6.33605 13.9555 6.19372Z M9.91712 8.16668C9.59454 8.16668 9.33379 8.428 9.33379 8.75V11.6667H7.00047V2.33332C7.00047 2.07607 6.83129 1.84857 6.58454 1.7745L4.55862 1.16668H9.33379V4.08335C9.33379 4.40535 9.59454 4.66668 9.91712 4.66668C10.2397 4.66668 10.5004 4.40535 10.5004 4.08335V0.583352C10.5004 0.261324 10.2397 0 9.91712 0H0.58379C0.56279 0 0.544114 0.00875 0.523716 0.0110742C0.49629 0.014 0.471216 0.0186484 0.444966 0.0250742C0.383716 0.0408242 0.32829 0.06475 0.276391 0.0973984C0.263567 0.105574 0.247817 0.106148 0.235567 0.115473C0.230864 0.119 0.229114 0.125426 0.224438 0.128926C0.160864 0.179074 0.10779 0.240324 0.0692896 0.31325C0.0611139 0.329 0.0593639 0.345926 0.0529654 0.36225C0.0342896 0.406574 0.0138912 0.44975 0.00689118 0.49875C0.00396539 0.51625 0.0092154 0.532574 0.00864118 0.5495C0.00806696 0.561176 0.000465393 0.571676 0.000465393 0.583324V12.25C0.000465393 12.5282 0.19704 12.7674 0.469466 12.8217L6.30279 13.9884C6.34072 13.9965 6.37922 14 6.41712 14C6.55069 14 6.68194 13.954 6.78694 13.8676C6.92169 13.7568 7.00044 13.5917 7.00044 13.4167V12.8334H9.91712C10.2397 12.8334 10.5004 12.572 10.5004 12.25V8.75C10.5004 8.428 10.2397 8.16668 9.91712 8.16668Z" fill="white"/>
<!-- <path d="M13.9555 6.19372C13.9257 6.12255 13.8831 6.0578 13.8289 6.00355L12.0795 4.25412C11.8514 4.02662 11.4827 4.02662 11.2546 4.25412C11.0266 4.4822 11.0266 4.85145 11.2546 5.07895L12.0089 5.8332H8.75035C8.42778 5.8332 8.16703 6.09452 8.16703 6.41652C8.16703 6.73852 8.42778 6.99984 8.75035 6.99984H12.0089L11.2546 7.75409C11.0265 7.98217 11.0265 8.35142 11.2546 8.57892C11.3684 8.69324 11.5177 8.74984 11.667 8.74984C11.8164 8.74984 11.9657 8.69327 12.0795 8.57892L13.8289 6.82949C13.8831 6.77582 13.9257 6.71107 13.9555 6.63932C14.0144 6.49705 14.0144 6.33605 13.9555 6.19372Z" fill="white"/> -->
<!-- <path d="M9.91712 8.16668C9.59454 8.16668 9.33379 8.428 9.33379 8.75V11.6667H7.00047V2.33332C7.00047 2.07607 6.83129 1.84857 6.58454 1.7745L4.55862 1.16668H9.33379V4.08335C9.33379 4.40535 9.59454 4.66668 9.91712 4.66668C10.2397 4.66668 10.5004 4.40535 10.5004 4.08335V0.583352C10.5004 0.261324 10.2397 0 9.91712 0H0.58379C0.56279 0 0.544114 0.00875 0.523716 0.0110742C0.49629 0.014 0.471216 0.0186484 0.444966 0.0250742C0.383716 0.0408242 0.32829 0.06475 0.276391 0.0973984C0.263567 0.105574 0.247817 0.106148 0.235567 0.115473C0.230864 0.119 0.229114 0.125426 0.224438 0.128926C0.160864 0.179074 0.10779 0.240324 0.0692896 0.31325C0.0611139 0.329 0.0593639 0.345926 0.0529654 0.36225C0.0342896 0.406574 0.0138912 0.44975 0.00689118 0.49875C0.00396539 0.51625 0.0092154 0.532574 0.00864118 0.5495C0.00806696 0.561176 0.000465393 0.571676 0.000465393 0.583324V12.25C0.000465393 12.5282 0.19704 12.7674 0.469466 12.8217L6.30279 13.9884C6.34072 13.9965 6.37922 14 6.41712 14C6.55069 14 6.68194 13.954 6.78694 13.8676C6.92169 13.7568 7.00044 13.5917 7.00044 13.4167V12.8334H9.91712C10.2397 12.8334 10.5004 12.572 10.5004 12.25V8.75C10.5004 8.428 10.2397 8.16668 9.91712 8.16668Z" fill="white"/> -->
</g>
<defs>
<clipPath id="clip0">
<rect fill="white"/>
</clipPath>
</defs>
</svg>
